<svg width="991" height="631" viewBox="0 0 991 631" fill="none" xmlns="http://www.w3.org/2000/svg">
<g clip-path="url(#clip0_453_17)">
<path d="M229.237 218.611C238.448 206.341 242.746 191.617 242.746 176.894C242.746 138.858 212.659 108.798 173.975 108.798C135.291 108.798 105.194 138.858 105.194 176.894H25.3684C25.3684 95.3014 92.9245 28.4321 173.967 28.4321C255.01 28.4321 322.564 95.3096 322.564 176.894C322.562 209.416 312.002 241.06 292.468 267.076L172.739 425.353H322.187V505.106H13.0889L229.237 218.611Z" fill="url(#paint0_linear_453_17)"/>
<path d="M488.832 257.766C493.397 257.766 497.86 259.119 501.656 261.653C505.452 264.187 508.41 267.789 510.157 272.002C511.904 276.216 512.361 280.853 511.471 285.327C510.58 289.8 508.382 293.909 505.154 297.135C501.926 300.36 497.813 302.556 493.335 303.446C488.858 304.336 484.216 303.879 479.999 302.134C475.781 300.388 472.176 297.432 469.64 293.64C467.103 289.848 465.75 285.389 465.75 280.828C465.756 274.713 468.19 268.851 472.518 264.528C476.845 260.205 482.712 257.773 488.832 257.766ZM488.832 245.895C484.24 245.895 479.694 246.799 475.452 248.554C471.21 250.31 467.356 252.883 464.109 256.127C460.863 259.371 458.287 263.221 456.53 267.46C454.774 271.698 453.869 276.24 453.87 280.828C453.87 290.092 457.553 298.977 464.11 305.527C470.667 312.078 479.559 315.758 488.832 315.758C498.105 315.758 506.997 312.078 513.554 305.527C520.111 298.977 523.794 290.092 523.794 280.828C523.793 271.565 520.108 262.681 513.552 256.132C506.995 249.583 498.103 245.903 488.832 245.903V245.895Z" fill="white"/>
<path d="M605.483 257.766C610.049 257.766 614.512 259.118 618.308 261.652C622.104 264.186 625.063 267.787 626.81 272.001C628.558 276.215 629.015 280.852 628.125 285.325C627.234 289.799 625.036 293.908 621.808 297.134C618.58 300.359 614.467 302.556 609.989 303.446C605.512 304.336 600.871 303.879 596.653 302.134C592.435 300.388 588.83 297.433 586.293 293.64C583.757 289.848 582.403 285.389 582.403 280.828C582.41 274.714 584.843 268.852 589.17 264.529C593.497 260.205 599.364 257.773 605.483 257.766ZM605.483 245.895C600.892 245.895 596.345 246.798 592.103 248.554C587.861 250.309 584.006 252.882 580.759 256.126C577.512 259.37 574.937 263.221 573.18 267.459C571.423 271.698 570.519 276.24 570.519 280.828C570.519 290.092 574.203 298.977 580.759 305.527C587.316 312.078 596.209 315.758 605.481 315.758C610.073 315.759 614.619 314.855 618.862 313.1C623.104 311.345 626.958 308.772 630.205 305.528C633.452 302.284 636.027 298.434 637.784 294.196C639.541 289.957 640.446 285.415 640.446 280.828C640.444 271.565 636.76 262.681 630.203 256.132C623.647 249.583 614.755 245.903 605.483 245.903V245.895Z" fill="white"/>
<mask id="path-4-outside-1_453_17" maskUnits="userSpaceOnUse" x="335.244" y="26.5872" width="654" height="492" fill="black">
<rect fill="white" x="335.244" y="26.5872" width="654" height="492"/>
<path d="M978.864 277.12L978.77 149.559C978.751 87.1609 928.515 36.5872 866.538 36.5872H685.545C629.75 36.5872 583.478 77.5635 574.76 131.245H554.021V104.843L552.619 105.666C556.058 104.582 558.996 102.304 560.901 99.2439C562.805 96.1836 563.55 92.5433 563.001 88.9817C562.453 85.4201 560.646 82.1724 557.908 79.8261C555.171 77.4799 551.683 76.1901 548.076 76.1901C544.469 76.1901 540.981 77.4799 538.244 79.8261C535.506 82.1724 533.7 85.4201 533.151 88.9817C532.602 92.5433 533.347 96.1836 535.251 99.2439C537.156 102.304 540.094 104.582 543.534 105.666L542.131 104.843V131.255H457.509C395.485 131.255 345.226 181.894 345.244 244.311L345.296 371.312H345.271V507.785H412.78V507.759H412.903C412.903 505.571 412.903 503.583 412.93 501.7C412.946 493.823 413.043 487.983 413.043 479.579V452.514C413.043 434.63 417.537 418.723 417.537 418.723C424.476 393.363 449.072 369.623 475.874 367.32C476.26 367.277 476.637 367.25 477.022 367.223C449.781 365.517 424.592 341.61 417.537 316.057C417.537 316.057 413.025 289.472 413.043 282.468C413.095 275.883 413.043 255.585 413.043 255.585C413.043 224.151 445.033 199.315 478.661 199.315H617.481C621.803 199.316 626.116 199.723 630.362 200.532C632.446 200.908 634.514 201.408 636.557 201.972C638.703 202.567 640.787 203.26 642.855 204.03C665.575 212.697 683.064 232.332 683.064 255.573V282.455C683.117 289.452 678.578 316.044 678.578 316.044C673.513 334.472 658.995 352.041 641.078 361.04C639.144 362.012 637.16 362.882 635.136 363.649C633.192 364.398 631.209 365.041 629.196 365.575C625.889 366.448 622.506 366.999 619.093 367.221C619.47 367.248 619.855 367.275 620.232 367.318C623.262 367.579 626.262 368.112 629.196 368.911C631.215 369.415 633.199 370.05 635.136 370.812C637.164 371.579 639.148 372.458 641.078 373.446C658.997 382.515 673.486 400.18 678.578 418.717C678.578 418.717 683.064 431.656 683.064 452.507V479.573C683.064 486.454 683.16 492.792 683.214 501.694C683.214 503.596 683.23 505.59 683.23 507.752H683.257V508.269H750.889V371.759H750.846L750.723 244.197C750.719 235.28 749.675 226.393 747.613 217.716H846.823C866.072 217.716 881.687 202.116 881.687 182.892C881.682 173.656 878.007 164.799 871.47 158.268C864.933 151.737 856.068 148.066 846.823 148.061H710.621C707.007 148.05 703.414 148.612 699.975 149.725C685.297 139.975 668.492 133.884 650.97 131.963C662.949 115.501 684.458 104.66 706.679 104.66H845.528C879.129 104.66 911.119 129.512 911.119 160.93C911.119 160.93 911.092 181.23 911.119 187.804C911.162 194.801 906.625 221.402 906.625 221.402C899.589 246.945 874.381 270.878 847.14 272.568C847.525 272.586 847.902 272.611 848.288 272.656C875.09 274.984 899.684 298.708 906.625 324.059C906.625 324.059 911.119 337.005 911.119 357.875V475.991C911.119 484.325 911.259 491.87 911.286 504.17H911.302V504.67H978.945V277.12H978.864ZM846.842 159.932C849.877 159.903 852.889 160.476 855.702 161.617C858.515 162.757 861.074 164.444 863.231 166.579C865.388 168.713 867.1 171.254 868.268 174.053C869.437 176.853 870.039 179.856 870.039 182.889C870.039 185.923 869.437 188.926 868.268 191.725C867.1 194.525 865.388 197.066 863.231 199.2C861.074 201.335 858.515 203.021 855.702 204.162C852.889 205.303 849.877 205.876 846.842 205.847H744.082C737.764 188.219 727.153 172.44 713.206 159.932H846.842ZM688.077 156.343C691.739 158.448 695.262 160.785 698.626 163.34C713.14 174.323 724.434 189.002 731.325 205.841C732.909 209.709 734.249 213.674 735.337 217.71C737.677 226.348 738.862 235.258 738.861 244.208L738.974 371.789C738.966 372.169 738.983 372.55 739.026 372.927V496.393H695.077C695.053 494.607 695.053 492.928 695.034 491.29C695.007 487.175 694.956 483.471 694.956 479.586V452.514C694.956 431.88 690.82 417.988 689.969 415.282C684.476 395.622 670.93 378.243 654.132 367.293C670.998 356.422 684.571 339.044 690.037 319.218C690.152 318.836 690.24 318.447 690.301 318.053C691.08 313.45 695.005 290.067 694.954 282.416V255.585C694.954 225.91 672.051 199.91 641.251 190.868C639.255 190.272 637.23 189.747 635.189 189.327C633.218 188.899 631.245 188.539 629.216 188.278C625.327 187.726 621.405 187.447 617.476 187.444H478.659C436.643 187.444 401.159 218.644 401.159 255.612C401.159 255.612 401.213 275.842 401.159 282.39C401.134 290.067 405.033 313.45 405.822 318.053C405.892 318.438 405.987 318.841 406.084 319.218C411.569 339.044 425.115 356.422 442.008 367.293C425.088 378.263 411.499 395.762 406.084 415.492C405.892 416.21 401.159 433.212 401.159 452.514V479.579C401.159 484.605 401.116 488.736 401.089 492.938C401.089 493.936 401.064 494.918 401.064 495.906H357.151V371.882C357.151 371.689 357.178 371.495 357.178 371.312L357.124 244.311C357.124 217.27 367.56 191.838 386.548 172.729C405.536 153.621 430.698 143.124 457.509 143.124H638.487C640.53 143.124 642.553 143.194 644.569 143.307C659.883 144.234 674.772 148.696 688.068 156.343H688.077ZM967.054 492.799H923.114C923.096 491.021 923.071 489.331 923.071 487.695C923.026 483.59 922.999 479.886 922.999 475.991V357.875C922.999 337.215 918.865 323.323 917.988 320.619C912.521 300.957 898.975 283.579 882.171 272.638C899.045 261.767 912.616 244.381 918.076 224.562C918.19 224.18 918.277 223.791 918.338 223.398C919.127 218.784 923.044 195.402 922.999 187.761C922.974 181.176 922.999 160.946 922.999 160.93C922.999 123.989 887.524 92.7889 845.528 92.7889H706.679C676.687 92.7889 650.039 108.695 637.233 131.255H586.809C590.449 111.117 600.141 92.5643 614.595 78.0656C633.556 58.9736 658.747 48.4584 685.55 48.4584H866.542C921.839 48.4584 966.875 93.8055 966.892 149.559L966.988 277.12C966.99 277.503 967.014 277.885 967.058 278.266L967.054 492.799Z"/>
</mask>
<path d="M978.864 277.12L978.77 149.559C978.751 87.1609 928.515 36.5872 866.538 36.5872H685.545C629.75 36.5872 583.478 77.5635 574.76 131.245H554.021V104.843L552.619 105.666C556.058 104.582 558.996 102.304 560.901 99.2439C562.805 96.1836 563.55 92.5433 563.001 88.9817C562.453 85.4201 560.646 82.1724 557.908 79.8261C555.171 77.4799 551.683 76.1901 548.076 76.1901C544.469 76.1901 540.981 77.4799 538.244 79.8261C535.506 82.1724 533.7 85.4201 533.151 88.9817C532.602 92.5433 533.347 96.1836 535.251 99.2439C537.156 102.304 540.094 104.582 543.534 105.666L542.131 104.843V131.255H457.509C395.485 131.255 345.226 181.894 345.244 244.311L345.296 371.312H345.271V507.785H412.78V507.759H412.903C412.903 505.571 412.903 503.583 412.93 501.7C412.946 493.823 413.043 487.983 413.043 479.579V452.514C413.043 434.63 417.537 418.723 417.537 418.723C424.476 393.363 449.072 369.623 475.874 367.32C476.26 367.277 476.637 367.25 477.022 367.223C449.781 365.517 424.592 341.61 417.537 316.057C417.537 316.057 413.025 289.472 413.043 282.468C413.095 275.883 413.043 255.585 413.043 255.585C413.043 224.151 445.033 199.315 478.661 199.315H617.481C621.803 199.316 626.116 199.723 630.362 200.532C632.446 200.908 634.514 201.408 636.557 201.972C638.703 202.567 640.787 203.26 642.855 204.03C665.575 212.697 683.064 232.332 683.064 255.573V282.455C683.117 289.452 678.578 316.044 678.578 316.044C673.513 334.472 658.995 352.041 641.078 361.04C639.144 362.012 637.16 362.882 635.136 363.649C633.192 364.398 631.209 365.041 629.196 365.575C625.889 366.448 622.506 366.999 619.093 367.221C619.47 367.248 619.855 367.275 620.232 367.318C623.262 367.579 626.262 368.112 629.196 368.911C631.215 369.415 633.199 370.05 635.136 370.812C637.164 371.579 639.148 372.458 641.078 373.446C658.997 382.515 673.486 400.18 678.578 418.717C678.578 418.717 683.064 431.656 683.064 452.507V479.573C683.064 486.454 683.16 492.792 683.214 501.694C683.214 503.596 683.23 505.59 683.23 507.752H683.257V508.269H750.889V371.759H750.846L750.723 244.197C750.719 235.28 749.675 226.393 747.613 217.716H846.823C866.072 217.716 881.687 202.116 881.687 182.892C881.682 173.656 878.007 164.799 871.47 158.268C864.933 151.737 856.068 148.066 846.823 148.061H710.621C707.007 148.05 703.414 148.612 699.975 149.725C685.297 139.975 668.492 133.884 650.97 131.963C662.949 115.501 684.458 104.66 706.679 104.66H845.528C879.129 104.66 911.119 129.512 911.119 160.93C911.119 160.93 911.092 181.23 911.119 187.804C911.162 194.801 906.625 221.402 906.625 221.402C899.589 246.945 874.381 270.878 847.14 272.568C847.525 272.586 847.902 272.611 848.288 272.656C875.09 274.984 899.684 298.708 906.625 324.059C906.625 324.059 911.119 337.005 911.119 357.875V475.991C911.119 484.325 911.259 491.87 911.286 504.17H911.302V504.67H978.945V277.12H978.864ZM846.842 159.932C849.877 159.903 852.889 160.476 855.702 161.617C858.515 162.757 861.074 164.444 863.231 166.579C865.388 168.713 867.1 171.254 868.268 174.053C869.437 176.853 870.039 179.856 870.039 182.889C870.039 185.923 869.437 188.926 868.268 191.725C867.1 194.525 865.388 197.066 863.231 199.2C861.074 201.335 858.515 203.021 855.702 204.162C852.889 205.303 849.877 205.876 846.842 205.847H744.082C737.764 188.219 727.153 172.44 713.206 159.932H846.842ZM688.077 156.343C691.739 158.448 695.262 160.785 698.626 163.34C713.14 174.323 724.434 189.002 731.325 205.841C732.909 209.709 734.249 213.674 735.337 217.71C737.677 226.348 738.862 235.258 738.861 244.208L738.974 371.789C738.966 372.169 738.983 372.55 739.026 372.927V496.393H695.077C695.053 494.607 695.053 492.928 695.034 491.29C695.007 487.175 694.956 483.471 694.956 479.586V452.514C694.956 431.88 690.82 417.988 689.969 415.282C684.476 395.622 670.93 378.243 654.132 367.293C670.998 356.422 684.571 339.044 690.037 319.218C690.152 318.836 690.24 318.447 690.301 318.053C691.08 313.45 695.005 290.067 694.954 282.416V255.585C694.954 225.91 672.051 199.91 641.251 190.868C639.255 190.272 637.23 189.747 635.189 189.327C633.218 188.899 631.245 188.539 629.216 188.278C625.327 187.726 621.405 187.447 617.476 187.444H478.659C436.643 187.444 401.159 218.644 401.159 255.612C401.159 255.612 401.213 275.842 401.159 282.39C401.134 290.067 405.033 313.45 405.822 318.053C405.892 318.438 405.987 318.841 406.084 319.218C411.569 339.044 425.115 356.422 442.008 367.293C425.088 378.263 411.499 395.762 406.084 415.492C405.892 416.21 401.159 433.212 401.159 452.514V479.579C401.159 484.605 401.116 488.736 401.089 492.938C401.089 493.936 401.064 494.918 401.064 495.906H357.151V371.882C357.151 371.689 357.178 371.495 357.178 371.312L357.124 244.311C357.124 217.27 367.56 191.838 386.548 172.729C405.536 153.621 430.698 143.124 457.509 143.124H638.487C640.53 143.124 642.553 143.194 644.569 143.307C659.883 144.234 674.772 148.696 688.068 156.343H688.077ZM967.054 492.799H923.114C923.096 491.021 923.071 489.331 923.071 487.695C923.026 483.59 922.999 479.886 922.999 475.991V357.875C922.999 337.215 918.865 323.323 917.988 320.619C912.521 300.957 898.975 283.579 882.171 272.638C899.045 261.767 912.616 244.381 918.076 224.562C918.19 224.18 918.277 223.791 918.338 223.398C919.127 218.784 923.044 195.402 922.999 187.761C922.974 181.176 922.999 160.946 922.999 160.93C922.999 123.989 887.524 92.7889 845.528 92.7889H706.679C676.687 92.7889 650.039 108.695 637.233 131.255H586.809C590.449 111.117 600.141 92.5643 614.595 78.0656C633.556 58.9736 658.747 48.4584 685.55 48.4584H866.542C921.839 48.4584 966.875 93.8055 966.892 149.559L966.988 277.12C966.99 277.503 967.014 277.885 967.058 278.266L967.054 492.799Z" fill="white"/>
<path d="M978.864 277.12L978.77 149.559C978.751 87.1609 928.515 36.5872 866.538 36.5872H685.545C629.75 36.5872 583.478 77.5635 574.76 131.245H554.021V104.843L552.619 105.666C556.058 104.582 558.996 102.304 560.901 99.2439C562.805 96.1836 563.55 92.5433 563.001 88.9817C562.453 85.4201 560.646 82.1724 557.908 79.8261C555.171 77.4799 551.683 76.1901 548.076 76.1901C544.469 76.1901 540.981 77.4799 538.244 79.8261C535.506 82.1724 533.7 85.4201 533.151 88.9817C532.602 92.5433 533.347 96.1836 535.251 99.2439C537.156 102.304 540.094 104.582 543.534 105.666L542.131 104.843V131.255H457.509C395.485 131.255 345.226 181.894 345.244 244.311L345.296 371.312H345.271V507.785H412.78V507.759H412.903C412.903 505.571 412.903 503.583 412.93 501.7C412.946 493.823 413.043 487.983 413.043 479.579V452.514C413.043 434.63 417.537 418.723 417.537 418.723C424.476 393.363 449.072 369.623 475.874 367.32C476.26 367.277 476.637 367.25 477.022 367.223C449.781 365.517 424.592 341.61 417.537 316.057C417.537 316.057 413.025 289.472 413.043 282.468C413.095 275.883 413.043 255.585 413.043 255.585C413.043 224.151 445.033 199.315 478.661 199.315H617.481C621.803 199.316 626.116 199.723 630.362 200.532C632.446 200.908 634.514 201.408 636.557 201.972C638.703 202.567 640.787 203.26 642.855 204.03C665.575 212.697 683.064 232.332 683.064 255.573V282.455C683.117 289.452 678.578 316.044 678.578 316.044C673.513 334.472 658.995 352.041 641.078 361.04C639.144 362.012 637.16 362.882 635.136 363.649C633.192 364.398 631.209 365.041 629.196 365.575C625.889 366.448 622.506 366.999 619.093 367.221C619.47 367.248 619.855 367.275 620.232 367.318C623.262 367.579 626.262 368.112 629.196 368.911C631.215 369.415 633.199 370.05 635.136 370.812C637.164 371.579 639.148 372.458 641.078 373.446C658.997 382.515 673.486 400.18 678.578 418.717C678.578 418.717 683.064 431.656 683.064 452.507V479.573C683.064 486.454 683.16 492.792 683.214 501.694C683.214 503.596 683.23 505.59 683.23 507.752H683.257V508.269H750.889V371.759H750.846L750.723 244.197C750.719 235.28 749.675 226.393 747.613 217.716H846.823C866.072 217.716 881.687 202.116 881.687 182.892C881.682 173.656 878.007 164.799 871.47 158.268C864.933 151.737 856.068 148.066 846.823 148.061H710.621C707.007 148.05 703.414 148.612 699.975 149.725C685.297 139.975 668.492 133.884 650.97 131.963C662.949 115.501 684.458 104.66 706.679 104.66H845.528C879.129 104.66 911.119 129.512 911.119 160.93C911.119 160.93 911.092 181.23 911.119 187.804C911.162 194.801 906.625 221.402 906.625 221.402C899.589 246.945 874.381 270.878 847.14 272.568C847.525 272.586 847.902 272.611 848.288 272.656C875.09 274.984 899.684 298.708 906.625 324.059C906.625 324.059 911.119 337.005 911.119 357.875V475.991C911.119 484.325 911.259 491.87 911.286 504.17H911.302V504.67H978.945V277.12H978.864ZM846.842 159.932C849.877 159.903 852.889 160.476 855.702 161.617C858.515 162.757 861.074 164.444 863.231 166.579C865.388 168.713 867.1 171.254 868.268 174.053C869.437 176.853 870.039 179.856 870.039 182.889C870.039 185.923 869.437 188.926 868.268 191.725C867.1 194.525 865.388 197.066 863.231 199.2C861.074 201.335 858.515 203.021 855.702 204.162C852.889 205.303 849.877 205.876 846.842 205.847H744.082C737.764 188.219 727.153 172.44 713.206 159.932H846.842ZM688.077 156.343C691.739 158.448 695.262 160.785 698.626 163.34C713.14 174.323 724.434 189.002 731.325 205.841C732.909 209.709 734.249 213.674 735.337 217.71C737.677 226.348 738.862 235.258 738.861 244.208L738.974 371.789C738.966 372.169 738.983 372.55 739.026 372.927V496.393H695.077C695.053 494.607 695.053 492.928 695.034 491.29C695.007 487.175 694.956 483.471 694.956 479.586V452.514C694.956 431.88 690.82 417.988 689.969 415.282C684.476 395.622 670.93 378.243 654.132 367.293C670.998 356.422 684.571 339.044 690.037 319.218C690.152 318.836 690.24 318.447 690.301 318.053C691.08 313.45 695.005 290.067 694.954 282.416V255.585C694.954 225.91 672.051 199.91 641.251 190.868C639.255 190.272 637.23 189.747 635.189 189.327C633.218 188.899 631.245 188.539 629.216 188.278C625.327 187.726 621.405 187.447 617.476 187.444H478.659C436.643 187.444 401.159 218.644 401.159 255.612C401.159 255.612 401.213 275.842 401.159 282.39C401.134 290.067 405.033 313.45 405.822 318.053C405.892 318.438 405.987 318.841 406.084 319.218C411.569 339.044 425.115 356.422 442.008 367.293C425.088 378.263 411.499 395.762 406.084 415.492C405.892 416.21 401.159 433.212 401.159 452.514V479.579C401.159 484.605 401.116 488.736 401.089 492.938C401.089 493.936 401.064 494.918 401.064 495.906H357.151V371.882C357.151 371.689 357.178 371.495 357.178 371.312L357.124 244.311C357.124 217.27 367.56 191.838 386.548 172.729C405.536 153.621 430.698 143.124 457.509 143.124H638.487C640.53 143.124 642.553 143.194 644.569 143.307C659.883 144.234 674.772 148.696 688.068 156.343H688.077ZM967.054 492.799H923.114C923.096 491.021 923.071 489.331 923.071 487.695C923.026 483.59 922.999 479.886 922.999 475.991V357.875C922.999 337.215 918.865 323.323 917.988 320.619C912.521 300.957 898.975 283.579 882.171 272.638C899.045 261.767 912.616 244.381 918.076 224.562C918.19 224.18 918.277 223.791 918.338 223.398C919.127 218.784 923.044 195.402 922.999 187.761C922.974 181.176 922.999 160.946 922.999 160.93C922.999 123.989 887.524 92.7889 845.528 92.7889H706.679C676.687 92.7889 650.039 108.695 637.233 131.255H586.809C590.449 111.117 600.141 92.5643 614.595 78.0656C633.556 58.9736 658.747 48.4584 685.55 48.4584H866.542C921.839 48.4584 966.875 93.8055 966.892 149.559L966.988 277.12C966.99 277.503 967.014 277.885 967.058 278.266L967.054 492.799Z" stroke="white" stroke-width="20" mask="url(#path-4-outside-1_453_17)"/>
</g>
<path d="M4.4317 607V596.552L26.3554 577.357C27.999 575.87 29.3979 574.511 30.5523 573.278C31.7067 572.026 32.5872 570.774 33.1937 569.521C33.8003 568.25 34.1036 566.87 34.1036 565.383C34.1036 563.72 33.7416 562.301 33.0176 561.127C32.2937 559.934 31.2958 559.014 30.024 558.369C28.7523 557.723 27.2946 557.4 25.651 557.4C23.9879 557.4 22.5303 557.743 21.278 558.427C20.0258 559.093 19.0475 560.061 18.3431 561.333C17.6583 562.605 17.3159 564.15 17.3159 565.97H3.55123C3.55123 561.881 4.47083 558.349 6.31004 555.375C8.14924 552.401 10.732 550.112 14.0582 548.507C17.404 546.883 21.2878 546.071 25.7097 546.071C30.2686 546.071 34.2307 546.835 37.5961 548.361C40.9614 549.887 43.5637 552.02 45.4029 554.759C47.2617 557.478 48.1911 560.638 48.1911 564.238C48.1911 566.528 47.7313 568.797 46.8117 571.047C45.8921 573.298 44.2388 575.782 41.8517 578.502C39.4842 581.222 36.1189 584.48 31.7556 588.275L24.5651 594.908V595.29H48.9248V607H4.4317ZM70.2542 607H54.6405L74.9207 546.893H94.2617L114.542 607H98.9282L84.8113 562.037H84.3417L70.2542 607ZM68.1704 583.345H100.807V594.38H68.1704V583.345ZM157.377 546.893H171.875V585.663C171.875 590.144 170.809 594.047 168.676 597.374C166.543 600.68 163.569 603.243 159.754 605.063C155.939 606.863 151.507 607.763 146.459 607.763C141.352 607.763 136.891 606.863 133.076 605.063C129.26 603.243 126.296 600.68 124.183 597.374C122.07 594.047 121.013 590.144 121.013 585.663V546.893H135.541V584.401C135.541 586.475 135.991 588.324 136.891 589.948C137.811 591.572 139.092 592.844 140.736 593.764C142.379 594.683 144.287 595.143 146.459 595.143C148.631 595.143 150.529 594.683 152.153 593.764C153.796 592.844 155.078 591.572 155.997 589.948C156.917 588.324 157.377 586.475 157.377 584.401V546.893ZM179.014 558.692V546.893H229.817V558.692H211.592V607H197.269V558.692H179.014ZM290.9 576.947C290.9 583.56 289.628 589.166 287.085 593.764C284.541 598.362 281.098 601.854 276.754 604.241C272.43 606.628 267.577 607.822 262.197 607.822C256.797 607.822 251.934 606.618 247.61 604.212C243.286 601.805 239.852 598.313 237.309 593.734C234.785 589.136 233.523 583.54 233.523 576.947C233.523 570.333 234.785 564.728 237.309 560.13C239.852 555.532 243.286 552.039 247.61 549.652C251.934 547.265 256.797 546.071 262.197 546.071C267.577 546.071 272.43 547.265 276.754 549.652C281.098 552.039 284.541 555.532 287.085 560.13C289.628 564.728 290.9 570.333 290.9 576.947ZM276.05 576.947C276.05 573.033 275.492 569.727 274.377 567.027C273.281 564.327 271.696 562.282 269.622 560.893C267.568 559.504 265.093 558.809 262.197 558.809C259.321 558.809 256.845 559.504 254.771 560.893C252.697 562.282 251.103 564.327 249.988 567.027C248.892 569.727 248.344 573.033 248.344 576.947C248.344 580.86 248.892 584.166 249.988 586.867C251.103 589.567 252.697 591.611 254.771 593.001C256.845 594.39 259.321 595.084 262.197 595.084C265.093 595.084 267.568 594.39 269.622 593.001C271.696 591.611 273.281 589.567 274.377 586.867C275.492 584.166 276.05 580.86 276.05 576.947ZM299.382 546.893H317.373L332.634 584.108H333.339L348.6 546.893H366.591V607H352.445V570.079H351.946L337.506 606.618H328.467L314.027 569.873H313.528V607H299.382V546.893ZM388.654 607H373.041L393.321 546.893H412.662L432.942 607H417.328L403.211 562.037H402.742L388.654 607ZM386.571 583.345H419.207V594.38H386.571V583.345ZM429.941 558.692V546.893H480.744V558.692H462.519V607H448.196V558.692H429.941ZM487.839 607V546.893H529.75V558.692H502.367V571.018H527.607V582.846H502.367V595.202H529.75V607H487.839ZM551.85 607H536.236L556.516 546.893H575.857L596.137 607H580.524L566.407 562.037H565.937L551.85 607ZM549.766 583.345H582.402V594.38H549.766V583.345ZM653.764 546.893V607H641.437L617.518 572.309H617.136V607H602.609V546.893H615.111L638.767 581.525H639.266V546.893H653.764ZM659.905 546.893H676.135L688.843 572.045H689.372L702.08 546.893H718.31L696.327 586.925V607H681.888V586.925L659.905 546.893ZM726.227 558.692V546.893H777.03V558.692H758.804V607H744.482V558.692H726.227ZM784.125 607V546.893H798.653V571.018H822.337V546.893H836.836V607H822.337V582.846H798.653V607H784.125ZM860.477 546.893V607H845.949V546.893H860.477ZM920.752 546.893V607H908.425L884.506 572.309H884.124V607H869.597V546.893H882.099L905.755 581.525H906.254V546.893H920.752ZM969.332 566.528C968.999 565.295 968.51 564.209 967.865 563.27C967.219 562.311 966.427 561.499 965.487 560.834C964.548 560.169 963.472 559.67 962.259 559.337C961.046 558.985 959.715 558.809 958.267 558.809C955.352 558.809 952.828 559.513 950.695 560.922C948.582 562.331 946.949 564.385 945.794 567.085C944.64 569.766 944.063 573.024 944.063 576.859C944.063 580.713 944.62 584 945.735 586.72C946.851 589.44 948.465 591.514 950.578 592.942C952.691 594.37 955.254 595.084 958.267 595.084C960.928 595.084 963.179 594.654 965.018 593.793C966.877 592.912 968.285 591.67 969.244 590.066C970.203 588.461 970.682 586.573 970.682 584.401L973.382 584.724H958.766V574.129H984.682V582.083C984.682 587.463 983.537 592.071 981.248 595.906C978.978 599.741 975.848 602.686 971.856 604.74C967.884 606.795 963.316 607.822 958.15 607.822C952.417 607.822 947.379 606.579 943.035 604.094C938.692 601.61 935.307 598.068 932.881 593.47C930.454 588.853 929.241 583.374 929.241 577.035C929.241 572.104 929.975 567.731 931.442 563.916C932.91 560.081 934.955 556.833 937.576 554.172C940.218 551.511 943.27 549.495 946.733 548.126C950.216 546.756 953.963 546.071 957.974 546.071C961.457 546.071 964.695 546.57 967.689 547.568C970.702 548.566 973.363 549.975 975.671 551.794C978 553.614 979.888 555.776 981.336 558.281C982.784 560.785 983.684 563.534 984.036 566.528H969.332Z" fill="white"/>
<defs>
<linearGradient id="paint0_linear_453_17" x1="340.839" y1="106.222" x2="20.0416" y2="508.392" gradientUnits="userSpaceOnUse">
<stop stop-color="#714B1E"/>
<stop offset="0.06" stop-color="#875E24"/>
<stop offset="0.13" stop-color="#9A6F28"/>
<stop offset="0.2" stop-color="#A5792B"/>
<stop offset="0.28" stop-color="#A97C2C"/>
<stop offset="0.53" stop-color="#E3A725"/>
<stop offset="0.8" stop-color="#A97C2C"/>
<stop offset="1" stop-color="#483517"/>
</linearGradient>
<clipPath id="clip0_453_17">
<rect width="989" height="518" fill="white"/>
</clipPath>
</defs>
</svg>
